<mxfile agent="5.0 (Windows NT 10.0; Win64; x64) AppleWebKit/537.36 (KHTML, like Gecko) draw.io/15.4.0 Chrome/91.0.4472.164 Electron/13.5.0 Safari/537.36" compressed="false" etag="yaHegFxw95ri5Q1j30xK" host="Electron" modified="2021-11-10T12:13:52.067Z" version="15.4.0" type="device">
  <diagram id="182df07f-a69e-4394-8fff-0c8b5831d14f" name="Page-1">
    <mxGraphModel dx="1088" dy="968" grid="1" gridSize="10" guides="1" tooltips="1" connect="1" arrows="1" fold="1" page="1" pageScale="1" pageWidth="850" pageHeight="1100" math="0" shadow="0">
      <root>
        <mxCell id="0" />
        <mxCell id="1" parent="0" />
        <UserObject label="Hren&#xa;sobachya" link="https://nasdanika.org" uri="nasdanika://hmmm" id="2">
          <mxCell style="verticalAlign=top;fillColor=#dae8fc;strokeColor=#6c8ebf;" parent="1" vertex="1">
            <mxGeometry x="152.78874536821954" y="305.5774907364391" width="160" height="60" as="geometry" />
          </mxCell>
        </UserObject>
        <mxCell id="3" value="Purum" style="fillColor=#fff2cc;strokeColor=#d6b656;" parent="2" vertex="1">
          <mxGeometry x="20" y="20" width="80" height="30" as="geometry" />
        </mxCell>
        <mxCell id="4" value="World!" style="fillColor=#fff2cc;strokeColor=#d6b656;" parent="1" vertex="1">
          <mxGeometry x="285.10768026944965" y="76.3943726841098" width="160" height="60" as="geometry" />
        </mxCell>
        <mxCell id="5" value="Govno" style="fillColor=#fff2cc;strokeColor=#d6b656;" parent="1" vertex="1">
          <mxGeometry x="20.469810466989486" y="76.3943726841097" width="80" height="30" as="geometry" />
        </mxCell>
        <mxCell id="6" value="Edge" style="noEdgeStyle=1" parent="1" source="2" target="4" edge="1">
          <mxGeometry relative="1" as="geometry" />
        </mxCell>
        <mxCell id="7" value="Cross Edge" style="noEdgeStyle=1" parent="1" source="3" target="5" edge="1">
          <mxGeometry relative="1" as="geometry" />
        </mxCell>
      </root>
    </mxGraphModel>
  </diagram>
</mxfile>
